<svg width="543" height="801" viewBox="0 0 543 801" fill="none" xmlns="http://www.w3.org/2000/svg">
<path d="M364.599 0H102.891V800H542.043C151.41 544.79 221.873 220.395 364.599 0Z" fill="#0E2BC5"/>
<path opacity="0.1" d="M148.152 387.312C130.708 414.473 115.578 440.547 102.891 466.226V800.004H347.283C122.521 622.127 148.152 387.312 148.152 387.312Z" fill="#F7FBFE"/>
<path d="M109.62 512.296C11.2971 605.136 -4.30419 718.222 1.05341 800H179.269C51.372 502.864 565.402 359.704 378.614 0H330.867C458.593 197.975 279.949 351.506 109.62 512.296Z" fill="#F9D414"/>
<path d="M378.615 0H363.399C459.964 152.741 378.915 344.346 222.73 468.79C21.0268 629.481 70.6167 800 70.6167 800H179.269C51.3722 502.864 565.402 359.704 378.615 0Z" fill="white"/>
</svg>
